<svg xmlns="http://www.w3.org/2000/svg" width="21.676" height="20.773" viewBox="0 0 21.676 20.773">
  <g id="Icon_feather-shopping-cart" data-name="Icon feather-shopping-cart" transform="translate(-0.6 -0.6)">
    <path id="Path_39438" data-name="Path 39438" d="M13.807,30.9a.9.9,0,1,1-.9-.9A.9.9,0,0,1,13.807,30.9Z" transform="translate(-4.176 -11.334)" fill="none" stroke="#fff" stroke-linecap="round" stroke-linejoin="round" stroke-width="1.8"/>
    <path id="Path_39439" data-name="Path 39439" d="M30.307,30.9a.9.9,0,1,1-.9-.9A.9.9,0,0,1,30.307,30.9Z" transform="translate(-10.738 -11.334)" fill="none" stroke="#fff" stroke-linecap="round" stroke-linejoin="round" stroke-width="1.8"/>
    <path id="Path_39440" data-name="Path 39440" d="M1.5,1.5H5.114L7.535,13.6a1.807,1.807,0,0,0,1.807,1.455h8.782A1.807,1.807,0,0,0,19.931,13.6l1.446-7.58H6.017" fill="none" stroke="#fff" stroke-linecap="round" stroke-linejoin="round" stroke-width="1.8"/>
  </g>
</svg>
