<svg xmlns="http://www.w3.org/2000/svg" width="44.562" height="40.201" viewBox="0 0 44.562 40.201">
  <g id="noun_Home_2186916" transform="translate(0.049)">
    <g id="Group_36231" data-name="Group 36231" transform="translate(-0.049)">
      <path id="Path_39441" data-name="Path 39441" d="M23.607.473,43.787,17.5a1.955,1.955,0,0,1-1.261,3.468H37.953V38.152A2.087,2.087,0,0,1,35.9,40.2H28.967a2.087,2.087,0,0,1-2.049-2.049V27.432H17.458v10.72A1.955,1.955,0,0,1,15.567,40.2H8.472A2.064,2.064,0,0,1,6.58,38.152V20.968H2.008A1.93,1.93,0,0,1,.747,17.5L20.927.473A2.135,2.135,0,0,1,23.607.473Z" transform="translate(0.049)" fill="#fff" fill-rule="evenodd"/>
    </g>
  </g>
</svg>
