<svg xmlns="http://www.w3.org/2000/svg" width="18.556" height="18.545" viewBox="0 0 18.556 18.545">
  <g id="Group_31651" data-name="Group 31651" transform="translate(0.205 0.2)">
    <g id="noun_User_3633611" transform="translate(0 0)">
      <path id="Path_38888" data-name="Path 38888" d="M3.3,19.144H17.317a2.091,2.091,0,0,0,1.6-.75,1.943,1.943,0,0,0,.424-1.639,9.127,9.127,0,0,0-6.325-6.877,4.8,4.8,0,0,0,2.006-5.43,4.941,4.941,0,0,0-9.421,0A4.8,4.8,0,0,0,7.6,9.878a9.128,9.128,0,0,0-6.337,6.877A1.943,1.943,0,0,0,1.7,18.394a2.091,2.091,0,0,0,1.6.75ZM6.621,5.838a3.688,3.688,0,0,1,7.376,0,3.688,3.688,0,0,1-7.376,0ZM2.472,16.991a8.017,8.017,0,0,1,15.674,0,.747.747,0,0,1-.166.6.853.853,0,0,1-.664.339H3.3a.854.854,0,0,1-.658-.308A.747.747,0,0,1,2.472,16.991Z" transform="translate(-1.232 -0.999)" fill="#fff" stroke="#fff" stroke-width="0.4"/>
    </g>
  </g>
</svg>
