<svg xmlns="http://www.w3.org/2000/svg" width="23.074" height="19.379" viewBox="0 0 23.074 19.379">
  <g id="Group_37412" data-name="Group 37412" transform="translate(-114 -235)">
    <path id="Path_36678" data-name="Path 36678" d="M135.046,238.605h-3.907l-.5-2.519A1.355,1.355,0,0,0,129.309,235h-7.544a1.355,1.355,0,0,0-1.326,1.087l-.5,2.519h-3.907A2.03,2.03,0,0,0,114,240.633v11.717a2.03,2.03,0,0,0,2.028,2.028h19.018a2.03,2.03,0,0,0,2.028-2.028V240.633a2.03,2.03,0,0,0-2.028-2.028Zm-13.281-2.253h7.544l.451,2.253h-8.446Zm13.957,16a.677.677,0,0,1-.676.676H116.028a.677.677,0,0,1-.676-.676V240.633a.677.677,0,0,1,.676-.676h19.018a.677.677,0,0,1,.676.676Zm0,0" fill="#fff"/>
    <path id="Path_36679" data-name="Path 36679" d="M227.752,343a5,5,0,1,0,5,5,5.008,5.008,0,0,0-5-5Zm0,8.653A3.65,3.65,0,1,1,231.4,348a3.655,3.655,0,0,1-3.65,3.65Zm0,0" transform="translate(-102.215 -101.51)" fill="#fff"/>
    <path id="Path_36680" data-name="Path 36680" d="M165.589,343h-2.163a.676.676,0,1,0,0,1.352h2.163a.676.676,0,1,0,0-1.352Zm0,0" transform="translate(-45.821 -101.51)" fill="#fff"/>
  </g>
</svg>
