<svg xmlns="http://www.w3.org/2000/svg" width="16.69" height="16.659" viewBox="0 0 16.69 16.659">
  <g id="noun_Save_2209758" transform="translate(-5.13 -41.5)">
    <g id="Group_37385" data-name="Group 37385" transform="translate(5.13 41.5)">
      <path id="Path_42843" data-name="Path 42843" d="M57.89,257.929v3.86a.916.916,0,0,1-.026.214h0a.8.8,0,0,1-.772.664h-15.1a.8.8,0,0,1-.783-.736.679.679,0,0,1-.011-.148v-3.86a.809.809,0,0,1,.788-.824.774.774,0,0,1,.557.242.846.846,0,0,1,.231.582v3.091H56.319v-3.091a.809.809,0,0,1,.788-.824.774.774,0,0,1,.557.242A.891.891,0,0,1,57.89,257.929Z" transform="translate(-41.2 -246.009)" fill="#fff"/>
      <path id="Path_42844" data-name="Path 42844" d="M117.546,50.3,113.8,54.349a.08.08,0,0,1-.02.022.86.86,0,0,1-.493.269c-.015,0-.03.005-.046.005a.511.511,0,0,1-.091.005h0l-.086-.005c-.015,0-.031-.005-.046-.005a.845.845,0,0,1-.493-.269l-.02-.022L108.759,50.3a1.024,1.024,0,0,1,0-1.362.849.849,0,0,1,1.26,0l2.251,2.433V42.461a.932.932,0,0,1,.889-.961.876.876,0,0,1,.63.28.989.989,0,0,1,.259.681v8.912L116.3,48.94a.849.849,0,0,1,1.26,0A1.041,1.041,0,0,1,117.546,50.3Z" transform="translate(-104.805 -41.5)" fill="#fff"/>
    </g>
  </g>
</svg>
