<svg id="down-arrow" xmlns="http://www.w3.org/2000/svg" width="194.82" height="194.82" viewBox="0 0 194.82 194.82">
  <path id="Path_42845" data-name="Path 42845" d="M97.41,0a97.41,97.41,0,1,0,97.41,97.41A97.41,97.41,0,0,0,97.41,0Z" fill="#626262"/>
  <path id="Path_42846" data-name="Path 42846" d="M212.057,155.817a4.236,4.236,0,0,0-3.913-2.617H178.5V89.739a4.235,4.235,0,0,0-4.235-4.235H123.439a4.235,4.235,0,0,0-4.235,4.235V153.2H89.557a4.235,4.235,0,0,0-3,7.234l59.293,59.361a4.235,4.235,0,0,0,5.989,0l59.293-59.361A4.236,4.236,0,0,0,212.057,155.817Z" transform="translate(-51.44 -51.554)" fill="#070606"/>
</svg>
