<svg xmlns="http://www.w3.org/2000/svg" width="25.633" height="19.664" viewBox="0 0 25.633 19.664">
  <g id="noun_Email_3733314" transform="translate(0.5 0.5)">
    <path id="Path_42837" data-name="Path 42837" d="M31.791,18.5H12.842A2.851,2.851,0,0,0,10,21.342v12.98a2.851,2.851,0,0,0,2.842,2.842H31.791a2.851,2.851,0,0,0,2.842-2.842V21.342A2.83,2.83,0,0,0,31.791,18.5Zm0,.632a2.229,2.229,0,0,1,1.421.505l-9.348,9.348a2.192,2.192,0,0,1-3.095,0l-9.348-9.348a2.229,2.229,0,0,1,1.421-.505ZM34,34.29A2.217,2.217,0,0,1,31.791,36.5H12.842a2.217,2.217,0,0,1-2.211-2.211V21.342a2.01,2.01,0,0,1,.379-1.2l9.316,9.316a2.821,2.821,0,0,0,3.979,0l9.316-9.316a2.25,2.25,0,0,1,.379,1.2Z" transform="translate(-10 -18.5)" fill="#070606" stroke="#070606" stroke-width="1"/>
  </g>
</svg>
