<svg xmlns="http://www.w3.org/2000/svg" width="22.149" height="28.291" viewBox="0 0 22.149 28.291">
  <g id="noun_Lock_153882" transform="translate(0.15 0.15)">
    <path id="Path_42838" data-name="Path 42838" d="M47.5,60.1a2.3,2.3,0,1,0-2.95,2.2v2.107c0,.227.292.421.648.421s.648-.194.648-.421V62.306A2.3,2.3,0,0,0,47.5,60.1Zm-2.3,1a1,1,0,1,1,1-1A1.01,1.01,0,0,1,45.2,61.106Z" transform="translate(-34.277 -41.589)" fill="#070606" stroke="#070606" stroke-width="0.3"/>
    <path id="Path_42839" data-name="Path 42839" d="M36.009,16.309H34.161V11.878a6.942,6.942,0,0,0-13.874,0v4.431H18.439a2.1,2.1,0,0,0-2.139,2.06V31.132a2.1,2.1,0,0,0,2.139,2.06H36.009a2.1,2.1,0,0,0,2.139-2.06V18.4A2.084,2.084,0,0,0,36.009,16.309ZM21.584,11.878a5.644,5.644,0,0,1,11.281,0v4.431H21.584Zm15.3,19.285a.822.822,0,0,1-.843.811h-17.6a.822.822,0,0,1-.843-.811V18.4a.822.822,0,0,1,.843-.811H36.009a.822.822,0,0,1,.843.811V31.163Z" transform="translate(-16.3 -5.2)" fill="#070606" stroke="#070606" stroke-width="0.3"/>
  </g>
</svg>
