<svg xmlns="http://www.w3.org/2000/svg" width="49.274" height="37.015" viewBox="0 0 49.274 37.015">
  <path id="Path_39363" data-name="Path 39363" d="M36.22,52.147H24.143a14.017,14.017,0,0,1-3.108-.45,7.837,7.837,0,0,1-2.293-1.288L14.47,46.84H13.127A4.029,4.029,0,0,1,9.1,42.816v-3.6H8.538v4.754a2.478,2.478,0,1,1-4.955,0V29.512a2.478,2.478,0,0,1,4.955,0v4.753H9.1V30.738a4.029,4.029,0,0,1,4.025-4.025H15.02l3.807-3.922a5.062,5.062,0,0,1,2.065-1.56,7.685,7.685,0,0,1,2.018-.223c.315,0,.529.011.529.011h5.854v-.932H24.539a2.478,2.478,0,0,1,0-4.955H39a2.478,2.478,0,0,1,0,4.955H34.247v.931h8.446a4.029,4.029,0,0,1,4.024,4.025v9.221H47.9V29.511a2.477,2.477,0,1,1,4.955,0V43.973a2.478,2.478,0,1,1-4.956,0V39.22H46.717v3.6a4.028,4.028,0,0,1-4.024,4.024H41.9l-3.128,4.039a2.605,2.605,0,0,1-1.124,1A4.118,4.118,0,0,1,36.22,52.147ZM6.946,37.627h3.749v5.189a2.435,2.435,0,0,0,2.433,2.431h1.92l4.718,3.942a6.29,6.29,0,0,0,1.774,1,12.234,12.234,0,0,0,2.634.368H36.219a2.593,2.593,0,0,0,.809-.14,1.1,1.1,0,0,0,.4-.382l.061-.092,3.635-4.693h1.573a2.435,2.435,0,0,0,2.432-2.432V37.628h4.369v6.346a.886.886,0,1,0,1.771,0V29.512a.885.885,0,1,0-1.77,0v6.345H45.124V25.044a2.435,2.435,0,0,0-2.432-2.433H32.654V18.5H39a.885.885,0,0,0,0-1.771H24.539a.885.885,0,0,0,0,1.771h6.346v4.116H23.4c-.05,0-.228-.011-.487-.011a6.123,6.123,0,0,0-1.56.156,3.677,3.677,0,0,0-1.3,1.059l-.052.059-4.3,4.431H13.128A2.435,2.435,0,0,0,10.7,30.738v5.119H6.946V29.512a.885.885,0,0,0-1.771,0V43.973a.885.885,0,1,0,1.771,0ZM23.084,48.984l3.724-10.867h-4.2l6.04-11.905h7.89l-4.184,8.6h4.909ZM25.2,36.525h3.835L26.818,43l6.6-6.6h-3.61L33.992,27.8H29.626Z" transform="translate(-3.583 -15.132)" fill="#fff"/>
</svg>
