<svg xmlns="http://www.w3.org/2000/svg" width="40.032" height="34.617" viewBox="0 0 40.032 34.617">
  <g id="noun_Gear_3426167" transform="translate(0.014 -1.784)">
    <g id="Group_36075" data-name="Group 36075" transform="translate(0.225 1.984)">
      <path id="Path_39364" data-name="Path 39364" d="M-116.161,198.693a1.382,1.382,0,0,0-1.32.977l-.555,1.847a9.68,9.68,0,0,0-2.581.255l-.911-1.693a1.378,1.378,0,0,0-1.86-.558l-1.9,1.022a1.379,1.379,0,0,0-.559,1.86l.914,1.7a9.631,9.631,0,0,0-1.641,2.008l-1.845-.553h0a1.379,1.379,0,0,0-1.71.92l-.621,2.067a1.379,1.379,0,0,0,.92,1.71l1.847.555a9.632,9.632,0,0,0,.255,2.581l-1.693.911a1.38,1.38,0,0,0-.559,1.86l1.023,1.9a1.378,1.378,0,0,0,1.86.558l1.7-.914a9.628,9.628,0,0,0,2.007,1.641l-.554,1.845a1.379,1.379,0,0,0,.92,1.71l2.067.621a1.38,1.38,0,0,0,1.71-.92l.555-1.847a9.686,9.686,0,0,0,2.581-.255l.911,1.693a1.378,1.378,0,0,0,1.86.558l1.9-1.022a1.379,1.379,0,0,0,.559-1.86l-.914-1.7a9.632,9.632,0,0,0,1.641-2.007l1.845.553a1.378,1.378,0,0,0,1.71-.92l.62-2.067a1.379,1.379,0,0,0-.92-1.71l-1.847-.555a9.624,9.624,0,0,0-.256-2.581l1.692-.911a1.38,1.38,0,0,0,.559-1.86l-1.023-1.9a1.378,1.378,0,0,0-1.86-.558l-1.7.913a9.619,9.619,0,0,0-2.007-1.641l.554-1.845a1.38,1.38,0,0,0-.92-1.71l-2.067-.62a1.087,1.087,0,0,0-.272-.048,1.033,1.033,0,0,0-.119-.006Zm-.012.84a.624.624,0,0,1,.161.024l2.067.621a.52.52,0,0,1,.356.661l-.646,2.153a.421.421,0,0,0,.2.487,8.787,8.787,0,0,1,2.308,1.887.421.421,0,0,0,.517.095l1.981-1.066a.523.523,0,0,1,.719.216l1.023,1.9a.521.521,0,0,1-.216.72l-1.975,1.063a.421.421,0,0,0-.206.482,8.8,8.8,0,0,1,.294,2.969.421.421,0,0,0,.3.433l2.156.647a.52.52,0,0,1,.356.661l-.62,2.067a.521.521,0,0,1-.662.356l-2.152-.646a.421.421,0,0,0-.487.2,8.793,8.793,0,0,1-1.887,2.308.421.421,0,0,0-.095.517l1.066,1.982a.522.522,0,0,1-.216.72l-1.9,1.022a.523.523,0,0,1-.719-.216l-1.063-1.975a.421.421,0,0,0-.482-.207,8.785,8.785,0,0,1-2.969.293.421.421,0,0,0-.433.3l-.647,2.156a.522.522,0,0,1-.662.356l-2.067-.621a.52.52,0,0,1-.356-.661l.646-2.153a.421.421,0,0,0-.2-.488,8.782,8.782,0,0,1-2.308-1.887.421.421,0,0,0-.517-.095l-1.982,1.066a.523.523,0,0,1-.719-.216l-1.023-1.9a.522.522,0,0,1,.216-.72l1.975-1.063a.421.421,0,0,0,.206-.482,8.8,8.8,0,0,1-.293-2.969.421.421,0,0,0-.3-.433l-2.156-.647a.52.52,0,0,1-.356-.661l.621-2.067a.521.521,0,0,1,.661-.356l2.153.646a.421.421,0,0,0,.487-.2,8.794,8.794,0,0,1,1.887-2.309.421.421,0,0,0,.095-.517L-125.1,202a.521.521,0,0,1,.216-.72l1.9-1.022a.523.523,0,0,1,.719.216l1.063,1.975a.421.421,0,0,0,.482.207,8.814,8.814,0,0,1,2.968-.293.421.421,0,0,0,.433-.3l.647-2.156a.521.521,0,0,1,.449-.378c.017,0,.035,0,.052,0Zm18.642,1.681a.885.885,0,0,0-.141.012.975.975,0,0,0-.793.71l-.243.942a5.823,5.823,0,0,0-1.222.17l-.492-.835a.97.97,0,0,0-1.318-.34l-1.057.623a.969.969,0,0,0-.339,1.318l.494.837a5.624,5.624,0,0,0-.742.984l-.94-.242h0a.969.969,0,0,0-1.172.691l-.307,1.188a.969.969,0,0,0,.691,1.172l.942.242a5.638,5.638,0,0,0,.169,1.222l-.835.493h0a.969.969,0,0,0-.339,1.318l.623,1.057a.97.97,0,0,0,1.318.34h0l.837-.494a5.673,5.673,0,0,0,.984.742l-.243.941a.97.97,0,0,0,.691,1.172l1.188.306a.97.97,0,0,0,1.172-.691l.243-.942a5.822,5.822,0,0,0,1.222-.17l.492.835a.97.97,0,0,0,1.318.34l1.057-.623a.969.969,0,0,0,.34-1.318l-.494-.837a5.618,5.618,0,0,0,.742-.984l.941.242a.969.969,0,0,0,1.172-.691l.306-1.188a.97.97,0,0,0-.691-1.172l-.941-.242a5.68,5.68,0,0,0-.17-1.222l.835-.493a.969.969,0,0,0,.34-1.318l-.623-1.057a.97.97,0,0,0-1.318-.34l-.838.494a5.674,5.674,0,0,0-.984-.742l.243-.941h0a.97.97,0,0,0-.691-1.172l-1.188-.306h0a.835.835,0,0,0-.239-.036Zm0,.841.026,0h0l1.188.306a.114.114,0,0,1,.087.147l-.319,1.237a.421.421,0,0,0,.215.48,4.8,4.8,0,0,1,1.3.983.421.421,0,0,0,.52.071l1.1-.65h0a.11.11,0,0,1,.165.048l.623,1.057a.113.113,0,0,1-.043.165l-1.1.648a.421.421,0,0,0-.187.49,4.82,4.82,0,0,1,.225,1.619.421.421,0,0,0,.316.422l1.239.319a.114.114,0,0,1,.087.147l-.306,1.188a.107.107,0,0,1-.146.083l-1.237-.319a.421.421,0,0,0-.479.215,4.828,4.828,0,0,1-.983,1.3.421.421,0,0,0-.075.52l.65,1.1a.113.113,0,0,1-.043.165l-1.057.623h0a.11.11,0,0,1-.165-.048l-.648-1.1a.421.421,0,0,0-.49-.188,4.824,4.824,0,0,1-1.619.224.421.421,0,0,0-.421.316l-.32,1.239a.107.107,0,0,1-.147.083l-1.188-.306a.114.114,0,0,1-.087-.147l.319-1.237a.421.421,0,0,0-.215-.48,4.841,4.841,0,0,1-1.3-.983.421.421,0,0,0-.521-.071l-1.1.651h0a.109.109,0,0,1-.165-.048l-.623-1.057h0a.113.113,0,0,1,.043-.165l1.1-.648a.421.421,0,0,0,.187-.49,4.818,4.818,0,0,1-.224-1.619.421.421,0,0,0-.316-.422l-1.239-.319a.113.113,0,0,1-.087-.146h0l.306-1.188a.107.107,0,0,1,.146-.083h0l1.237.319a.421.421,0,0,0,.479-.215,4.813,4.813,0,0,1,.983-1.3.421.421,0,0,0,.075-.52l-.65-1.1h0a.113.113,0,0,1,.043-.165l1.057-.623a.109.109,0,0,1,.165.048l.648,1.1a.421.421,0,0,0,.49.188,4.824,4.824,0,0,1,1.619-.224.421.421,0,0,0,.421-.316l.32-1.239a.121.121,0,0,1,.12-.095Zm-.981,2.892a3.574,3.574,0,0,0-3.476,2.675,3.573,3.573,0,0,0,2.562,4.344,3.573,3.573,0,0,0,4.344-2.562,3.573,3.573,0,0,0-2.562-4.344,3.715,3.715,0,0,0-.713-.107c-.052,0-.1,0-.155,0Zm-19.8.235h-.11a5.96,5.96,0,0,0-5.643,4.242,5.96,5.96,0,0,0,3.99,7.415,5.96,5.96,0,0,0,7.414-3.99,5.96,5.96,0,0,0-3.99-7.415,5.936,5.936,0,0,0-1.661-.252Zm19.793.6c.039,0,.079,0,.119,0a2.829,2.829,0,0,1,.547.083,2.718,2.718,0,0,1,1.957,3.319,2.718,2.718,0,0,1-3.318,1.957,2.718,2.718,0,0,1-1.957-3.318,2.718,2.718,0,0,1,2.653-2.045Zm-19.834.235a4.252,4.252,0,0,1,.443.024,5.474,5.474,0,0,1,1.018.2,5.106,5.106,0,0,1,3.426,6.366,5.105,5.105,0,0,1-6.366,3.426,5.106,5.106,0,0,1-3.426-6.366,5.106,5.106,0,0,1,4.905-3.644Zm15.614,8.711a.937.937,0,0,0-.11.008l-1.52.165a1.1,1.1,0,0,0-.971,1.207l.139,1.28a6.907,6.907,0,0,0-1.467.8l-1-.8a1.1,1.1,0,0,0-1.54.167l-.958,1.191a1.1,1.1,0,0,0,.167,1.54h0s0,0,0,0l1,.806a6.925,6.925,0,0,0-.47,1.6l-1.278.139a1.1,1.1,0,0,0-.971,1.207l.165,1.519a1.1,1.1,0,0,0,1.207.97l1.279-.139a6.939,6.939,0,0,0,.8,1.467l-.8,1a1.1,1.1,0,0,0,.167,1.54l1.191.958a1.1,1.1,0,0,0,1.54-.167h0l.807-1a6.91,6.91,0,0,0,1.6.47l.138,1.278a1.1,1.1,0,0,0,1.207.971l1.519-.165a1.1,1.1,0,0,0,.971-1.207l-.138-1.28a6.959,6.959,0,0,0,1.467-.8l1,.8a1.1,1.1,0,0,0,1.54-.167h0l.958-1.19a1.1,1.1,0,0,0-.167-1.54l-1-.806a6.933,6.933,0,0,0,.47-1.6l1.278-.139a1.1,1.1,0,0,0,.971-1.207l-.165-1.519a1.1,1.1,0,0,0-1.207-.97l-1.28.139a6.949,6.949,0,0,0-.8-1.467l.8-1a1.1,1.1,0,0,0-.167-1.54l-1.191-.958a1.1,1.1,0,0,0-1.54.167l-.807,1a6.967,6.967,0,0,0-1.6-.47l-.138-1.278a1.1,1.1,0,0,0-1.1-.977Zm.008.842a.239.239,0,0,1,.252.227l.171,1.582a.421.421,0,0,0,.37.373,6.173,6.173,0,0,1,1.986.583.421.421,0,0,0,.513-.119l1-1.242h0a.239.239,0,0,1,.356-.036l1.191.958a.244.244,0,0,1,.038.356l-1,1.237a.421.421,0,0,0,0,.525,6.122,6.122,0,0,1,.989,1.819.421.421,0,0,0,.444.283l1.585-.172a.25.25,0,0,1,.279.224l.165,1.519a.243.243,0,0,1-.224.279l-1.582.171a.421.421,0,0,0-.373.369,6.1,6.1,0,0,1-.583,1.986.421.421,0,0,0,.114.513l1.242,1a.245.245,0,0,1,.039.356l-.958,1.191h0a.238.238,0,0,1-.356.036l-1.237-1a.421.421,0,0,0-.525,0,6.091,6.091,0,0,1-1.819.989.421.421,0,0,0-.283.444l.172,1.585a.244.244,0,0,1-.224.279l-1.519.165a.25.25,0,0,1-.279-.224l-.171-1.582a.421.421,0,0,0-.37-.373,6.178,6.178,0,0,1-1.986-.583.421.421,0,0,0-.513.119l-1,1.242h0a.238.238,0,0,1-.356.035l-1.191-.958h0a.245.245,0,0,1-.039-.356l1-1.238a.421.421,0,0,0,0-.525,6.111,6.111,0,0,1-.989-1.819.421.421,0,0,0-.444-.283l-1.585.172a.25.25,0,0,1-.279-.224h0l-.165-1.519a.243.243,0,0,1,.224-.279h0l1.582-.171a.421.421,0,0,0,.373-.371,6.1,6.1,0,0,1,.583-1.986.421.421,0,0,0-.114-.513l-1.242-1h0a.245.245,0,0,1-.039-.356l.958-1.191h0a.238.238,0,0,1,.356-.035h0l1.237,1a.421.421,0,0,0,.524,0,6.093,6.093,0,0,1,1.819-.989.421.421,0,0,0,.283-.444l-.172-1.585a.245.245,0,0,1,.224-.279h0l1.52-.165h.027Zm.072,3.906c-.146,0-.294.011-.443.024a4.346,4.346,0,0,0-3.846,4.782,4.345,4.345,0,0,0,4.781,3.846h0a4.345,4.345,0,0,0,3.846-4.781,4.349,4.349,0,0,0-3.9-3.853c-.143-.012-.288-.024-.435-.024Zm.008.842c.119,0,.236,0,.352.012a3.49,3.49,0,0,1,3.144,3.106,3.491,3.491,0,0,1-3.1,3.854,3.49,3.49,0,0,1-3.854-3.1,3.491,3.491,0,0,1,3.1-3.854,3.574,3.574,0,0,1,.358-.024Z" transform="translate(130.805 -198.693)" fill="#fff" stroke="#fff" stroke-width="0.4"/>
    </g>
  </g>
</svg>
