<svg xmlns="http://www.w3.org/2000/svg" width="25.357" height="39.926" viewBox="0 0 25.357 39.926">
  <path id="Path_39365" data-name="Path 39365" d="M47.344,23.666a.96.96,0,0,0-.68-.634l-9.517-2.085L40.592,5.086a.859.859,0,0,0-.5-1,.907.907,0,0,0-1.088.227L22.238,23.348a.9.9,0,0,0-.181.816.917.917,0,0,0,.589.634L31.8,28.152,27.5,42.744a.887.887,0,0,0,.408,1.042.874.874,0,0,0,.453.136.823.823,0,0,0,.634-.272L47.118,24.617A1.059,1.059,0,0,0,47.344,23.666ZM30.26,39.617l3.489-11.828a.862.862,0,0,0-.544-1.088L24.5,23.53,38.1,8.122,35.154,21.49a.962.962,0,0,0,.68,1.088l8.837,1.9Z" transform="translate(-22.022 -3.996)" fill="#fff"/>
</svg>
