<svg xmlns="http://www.w3.org/2000/svg" width="45.51" height="24.013" viewBox="0 0 45.51 24.013">
  <g id="Group_36079" data-name="Group 36079" transform="translate(-2.561 -24.9)">
    <g id="Group_36079-2" data-name="Group 36079" transform="translate(24.34 24.9)">
      <path id="Path_39370" data-name="Path 39370" d="M48.527,30.6a16.8,16.8,0,0,1,2.684.623.534.534,0,0,0,.671-.288l1.965-4.745a.558.558,0,0,0-.383-.767,24.223,24.223,0,0,0-4.889-.527.583.583,0,0,0-.575.575v4.6A.608.608,0,0,0,48.527,30.6Z" transform="translate(-48 -24.9)" fill="#fff"/>
    </g>
    <g id="Group_36080" data-name="Group 36080" transform="translate(29.959 26.26)">
      <path id="Path_39371" data-name="Path 39371" d="M67.285,30.116a24.3,24.3,0,0,0-4.745-2.349.59.59,0,0,0-.719.336L59.76,33.136a.594.594,0,0,0,.24.719,19.2,19.2,0,0,1,2.349,1.438.575.575,0,0,0,.719-.048l4.266-4.266A.539.539,0,0,0,67.285,30.116Z" transform="translate(-59.723 -27.738)" fill="#fff"/>
    </g>
    <g id="Group_36081" data-name="Group 36081" transform="translate(34.674 30.338)">
      <path id="Path_39372" data-name="Path 39372" d="M78.878,40.633a21.952,21.952,0,0,0-3.307-3.691,8.344,8.344,0,0,0-.671-.575.521.521,0,0,0-.719.048l-4.457,4.457a.535.535,0,0,0,0,.767,7.371,7.371,0,0,1,.575.623,13.812,13.812,0,0,1,1.246,1.678.485.485,0,0,0,.671.192l6.47-2.684A.561.561,0,0,0,78.878,40.633Z" transform="translate(-69.561 -36.245)" fill="#fff"/>
    </g>
    <g id="Group_36082" data-name="Group 36082" transform="translate(37.895 37.085)">
      <path id="Path_39373" data-name="Path 39373" d="M86.452,56.591a24.1,24.1,0,0,0-2.4-5.991.594.594,0,0,0-.719-.24l-6.71,2.78a.512.512,0,0,0-.288.719,16.519,16.519,0,0,1,.959,2.972.562.562,0,0,0,.527.431h8.052A.579.579,0,0,0,86.452,56.591Z" transform="translate(-76.282 -50.323)" fill="#fff"/>
    </g>
    <g id="Group_36083" data-name="Group 36083" transform="translate(5.274 31.766)">
      <path id="Path_39374" data-name="Path 39374" d="M12,39.4a.5.5,0,0,0-.767,0l-.479.479a19.932,19.932,0,0,0-2.444,3.355.5.5,0,0,0,.288.767l1.821.767a.508.508,0,0,0,.623-.144,19.924,19.924,0,0,1,2.2-2.3,3.358,3.358,0,0,1,.479-.383.552.552,0,0,0,.048-.815Z" transform="translate(-8.221 -39.225)" fill="#fff"/>
    </g>
    <g id="Group_36084" data-name="Group 36084" transform="translate(16.929 25.092)">
      <path id="Path_39375" data-name="Path 39375" d="M38.128,30.093V25.875A.594.594,0,0,0,37.5,25.3a21.382,21.382,0,0,0-4.6,1.054.57.57,0,0,0-.336.719l1.438,3.5a.549.549,0,0,0,.623.336,15.114,15.114,0,0,1,2.924-.288A.544.544,0,0,0,38.128,30.093Z" transform="translate(-32.538 -25.3)" fill="#fff"/>
    </g>
    <g id="Group_36085" data-name="Group 36085" transform="translate(10.283 27.288)">
      <path id="Path_39376" data-name="Path 39376" d="M23.622,30.226a.577.577,0,0,0-.767-.288,26.635,26.635,0,0,0-3.978,2.54.552.552,0,0,0-.048.815l2.061,2.061a.58.58,0,0,0,.671.1,18.531,18.531,0,0,1,2.972-1.39.57.57,0,0,0,.336-.719Z" transform="translate(-18.671 -29.882)" fill="#fff"/>
    </g>
    <g id="Group_36086" data-name="Group 36086" transform="translate(2.561 38.236)">
      <path id="Path_39377" data-name="Path 39377" d="M6.126,53.336l-1.438-.575a.548.548,0,0,0-.719.288,19.6,19.6,0,0,0-1.39,4.889.547.547,0,0,0,.527.671H4.113a.561.561,0,0,0,.527-.383,20.557,20.557,0,0,1,1.773-4.074A.633.633,0,0,0,6.126,53.336Z" transform="translate(-2.561 -52.725)" fill="#fff"/>
    </g>
    <g id="Group_36087" data-name="Group 36087" transform="translate(19.643 36.297)">
      <path id="Path_39378" data-name="Path 39378" d="M50.087,48.784c-2.013,1.486-4.7,3.547-6.614,5.033a4.489,4.489,0,0,0-1.39-.288,3.882,3.882,0,1,0,3.882,3.882,3.438,3.438,0,0,0-.288-1.39c1.486-1.917,3.547-4.649,5.033-6.614A.441.441,0,0,0,50.087,48.784Z" transform="translate(-38.2 -48.678)" fill="#fff"/>
    </g>
  </g>
</svg>
