<svg xmlns="http://www.w3.org/2000/svg" width="21.342" height="15.516" viewBox="0 0 21.342 15.516">
  <g id="noun_menu_1166841" transform="translate(-3.925 -13)">
    <path id="Path_142" data-name="Path 142" d="M28.125,47.7H15.1a1.613,1.613,0,0,1-1.6-1.6h0a1.613,1.613,0,0,1,1.6-1.6H28.154a1.613,1.613,0,0,1,1.6,1.6h0A1.639,1.639,0,0,1,28.125,47.7Z" transform="translate(-9.575 -25.341)" fill="#f0f0e4"/>
    <path id="Path_143" data-name="Path 143" d="M22.484,79.1H15.1a1.613,1.613,0,0,1-1.6-1.6h0a1.613,1.613,0,0,1,1.6-1.6h7.385a1.613,1.613,0,0,1,1.6,1.6h0A1.6,1.6,0,0,1,22.484,79.1Z" transform="translate(-9.575 -50.582)" fill="#f0f0e4"/>
    <path id="Path_144" data-name="Path 144" d="M33.213,16.2H15.1a1.613,1.613,0,0,1-1.6-1.6h0A1.613,1.613,0,0,1,15.1,13H33.242a1.613,1.613,0,0,1,1.6,1.6h0A1.639,1.639,0,0,1,33.213,16.2Z" transform="translate(-9.575)" fill="#f0f0e4"/>
  </g>
</svg>
