<svg width="20" height="20" viewBox="0 0 20 20" fill="none" xmlns="http://www.w3.org/2000/svg">
<path d="M16.3393 2.225C14.5378 0.78362 12.2991 -0.00113866 9.99199 1.24007e-06C7.27236 1.24007e-06 4.73219 1.04777 2.83308 2.95044C0.997821 4.79151 -0.00798029 7.2223 5.54092e-05 9.79328C0.000117889 11.6782 0.5535 13.5217 1.59157 15.0951L1.60005 15.1071C1.61255 15.1254 1.6255 15.1437 1.63844 15.1616C1.65139 15.1794 1.66746 15.2026 1.67103 15.2084L1.68085 15.2263C1.7313 15.3156 1.77014 15.4245 1.73577 15.5343L0.913446 18.5102C0.880549 18.6209 0.862533 18.7354 0.859875 18.8508C0.85928 19.1545 0.979115 19.446 1.1931 19.6614C1.40709 19.8768 1.69776 19.9985 2.00139 20C2.16183 19.9947 2.31995 19.96 2.46791 19.8977L5.48085 18.8102L5.51879 18.7955C5.60075 18.7611 5.68883 18.7436 5.77772 18.7442C5.85968 18.7444 5.94091 18.7595 6.01745 18.7888C6.08977 18.8169 6.74647 19.0683 7.43932 19.262C8.01521 19.4227 9.21343 19.6638 10.1523 19.6638C12.8152 19.6638 15.3018 18.6325 17.1536 16.7593C18.9893 14.9004 20 12.4294 20 9.79864C20.0002 9.12333 19.9287 8.44991 19.7866 7.78971C19.325 5.61918 18.1009 3.6424 16.3393 2.225ZM5.71433 11.4285C5.43178 11.4285 5.15558 11.3448 4.92066 11.1878C4.68573 11.0308 4.50263 10.8077 4.3945 10.5467C4.28638 10.2856 4.25809 9.99839 4.31321 9.72128C4.36833 9.44416 4.50439 9.18962 4.70418 8.98983C4.90397 8.79004 5.15851 8.65398 5.43563 8.59886C5.71274 8.54374 5.99998 8.57203 6.26102 8.68015C6.52205 8.78828 6.74516 8.97138 6.90214 9.20631C7.05911 9.44123 7.14289 9.71743 7.14289 9.99998C7.14289 10.3789 6.99238 10.7422 6.72448 11.0101C6.45657 11.278 6.09321 11.4285 5.71433 11.4285ZM10 11.4285C9.71749 11.4285 9.44129 11.3448 9.20636 11.1878C8.97143 11.0308 8.78833 10.8077 8.68021 10.5467C8.57208 10.2856 8.54379 9.99839 8.59891 9.72128C8.65403 9.44416 8.79009 9.18962 8.98988 8.98983C9.18967 8.79004 9.44422 8.65398 9.72133 8.59886C9.99845 8.54374 10.2857 8.57203 10.5467 8.68015C10.8078 8.78828 11.0309 8.97138 11.1878 9.20631C11.3448 9.44123 11.4286 9.71743 11.4286 9.99998C11.4286 10.3789 11.2781 10.7422 11.0102 11.0101C10.7423 11.278 10.3789 11.4285 10 11.4285ZM14.2857 11.4285C14.0032 11.4285 13.727 11.3448 13.4921 11.1878C13.2571 11.0308 13.074 10.8077 12.9659 10.5467C12.8578 10.2856 12.8295 9.99839 12.8846 9.72128C12.9397 9.44416 13.0758 9.18962 13.2756 8.98983C13.4754 8.79004 13.7299 8.65398 14.007 8.59886C14.2841 8.54374 14.5714 8.57203 14.8324 8.68015C15.0935 8.78828 15.3166 8.97138 15.4735 9.20631C15.6305 9.44123 15.7143 9.71743 15.7143 9.99998C15.7143 10.3789 15.5638 10.7422 15.2959 11.0101C15.028 11.278 14.6646 11.4285 14.2857 11.4285Z" fill="#4E4B6F"/>
</svg>
